<svg 
 xmlns="http://www.w3.org/2000/svg"
 xmlns:xlink="http://www.w3.org/1999/xlink"
 width="23px" height="16px">
<path fill-rule="evenodd"  fill="#90dc00"
 d="M21.000,12.000 L12.006,12.000 L12.014,12.014 L10.000,12.014 L10.000,14.000 L21.000,14.000 L21.000,16.000 L10.000,16.000 L8.000,16.000 L8.000,14.000 L8.000,12.000 L8.000,10.390 L3.008,2.000 L-0.000,2.000 L-0.000,-0.000 L6.000,-0.000 L6.000,1.986 L6.048,1.986 L6.056,2.000 L21.000,2.000 L23.000,2.000 L23.000,4.000 L23.000,10.000 L23.000,12.000 L21.000,12.000 ZM21.000,4.000 L7.246,4.000 L10.816,10.000 L21.000,10.000 L21.000,4.000 Z"/>
</svg>