<?xml version="1.0" encoding="UTF-8" ?>
<!DOCTYPE svg PUBLIC "-//W3C//DTD SVG 1.1//EN" "http://www.w3.org/Graphics/SVG/1.1/DTD/svg11.dtd">
<svg width="170pt" height="40pt" viewBox="0 0 170 40" version="1.1" xmlns="http://www.w3.org/2000/svg">
<g id="#1f191aff">
<path fill="#1f191a" opacity="1.00" d=" M 24.42 0.00 L 137.68 0.00 C 137.29 1.49 136.93 2.99 136.58 4.49 C 147.72 4.52 158.86 4.54 170.00 4.48 L 170.00 5.52 C 167.16 15.44 164.86 25.50 162.19 35.47 C 157.21 35.32 152.17 35.96 147.25 34.98 C 139.32 36.11 131.30 35.06 123.35 35.61 C 119.83 37.10 116.60 39.39 112.73 40.00 L 0.00 40.00 L 0.00 39.31 C 2.02 32.14 3.68 24.87 5.64 17.68 C 8.06 8.92 15.66 2.11 24.42 0.00 M 7.29 18.24 C 5.55 24.85 3.94 31.49 2.17 38.09 C 37.79 38.36 73.42 38.10 109.04 38.22 C 112.54 38.14 116.62 37.94 119.21 35.28 C 107.19 37.63 94.87 35.82 82.71 36.69 C 82.82 34.77 82.70 32.84 82.30 30.95 C 82.51 27.51 87.19 26.81 89.79 25.55 C 91.20 17.63 95.17 10.61 98.92 3.62 C 97.77 3.81 96.63 4.01 95.48 4.22 C 94.45 7.56 91.79 10.10 90.38 13.29 C 91.48 9.89 93.19 6.73 94.81 3.55 C 107.52 3.52 120.29 3.36 133.00 3.69 L 134.08 5.13 C 134.58 4.11 135.08 3.08 135.58 2.05 C 132.41 1.64 129.22 1.82 126.03 1.80 C 93.38 1.79 60.72 1.81 28.07 1.79 C 18.41 1.51 9.68 9.11 7.29 18.24 M 99.21 6.37 C 98.49 8.76 97.89 11.18 97.30 13.60 C 98.87 13.57 100.45 13.53 102.03 13.50 C 100.08 15.11 97.92 16.43 95.79 17.80 C 95.30 19.84 94.76 21.88 94.19 23.91 C 109.84 24.43 125.53 23.63 141.17 24.32 C 140.05 25.37 138.46 25.18 137.05 25.20 C 128.79 25.15 120.53 25.19 112.27 25.18 C 111.55 27.98 110.84 30.78 110.15 33.59 C 121.73 33.48 133.32 33.73 144.90 33.47 C 150.08 32.61 150.09 26.42 151.35 22.44 C 152.53 19.75 151.38 15.78 148.01 15.65 C 141.67 15.85 135.32 15.77 128.97 15.82 C 127.54 15.76 126.00 16.07 124.71 15.28 C 134.86 15.30 144.99 14.94 155.13 14.83 C 153.53 21.08 151.92 27.32 150.34 33.57 C 153.85 33.58 157.36 33.60 160.87 33.53 C 163.10 24.48 165.47 15.46 167.76 6.43 C 144.91 6.39 122.06 6.50 99.21 6.37 Z" />
<path fill="#1f191a" opacity="1.00" d=" M 9.50 16.41 C 11.79 10.27 17.55 4.71 24.06 4.00 C 23.06 6.73 20.05 8.03 18.40 10.35 C 16.17 12.48 16.26 15.69 15.35 18.42 C 13.87 21.21 10.98 23.05 9.85 26.04 C 10.18 29.40 13.33 31.39 15.18 33.93 C 15.65 34.57 16.58 35.86 17.05 36.50 C 12.79 36.48 8.52 36.47 4.26 36.49 C 6.02 29.80 7.54 23.04 9.50 16.41 Z" />
<path fill="#1f191a" opacity="1.00" d=" M 70.39 5.37 C 71.85 4.54 73.32 3.63 75.04 3.44 C 70.41 6.82 65.01 8.93 60.28 12.16 C 51.33 17.95 44.14 25.97 37.14 33.89 C 41.22 32.93 44.36 30.00 48.13 28.35 C 55.65 25.01 63.29 21.54 71.54 20.55 C 72.01 19.56 72.46 18.56 72.92 17.56 C 72.83 18.20 72.66 19.47 72.58 20.10 C 74.42 20.14 76.26 20.22 78.09 20.46 C 65.94 21.11 54.42 25.82 43.89 31.67 C 40.87 33.27 38.10 35.34 34.95 36.70 C 32.89 34.05 30.66 31.54 28.37 29.08 C 26.12 30.69 24.07 32.60 21.60 33.89 C 22.36 33.12 23.10 32.35 23.83 31.57 C 20.53 29.76 17.53 27.44 14.12 25.82 C 15.76 29.16 17.81 32.33 20.63 34.79 C 20.36 35.40 20.10 36.02 19.85 36.63 C 18.29 32.92 14.93 30.49 12.95 27.09 C 11.79 24.31 15.06 22.39 16.39 20.37 C 18.76 18.12 17.89 14.37 19.85 11.89 C 22.00 9.12 24.62 6.73 27.53 4.77 C 24.94 7.94 22.10 10.89 19.61 14.14 C 19.64 16.34 19.71 18.63 18.38 20.52 C 19.61 21.94 20.83 23.36 21.89 24.92 C 20.25 23.62 19.01 21.65 17.00 20.92 C 15.50 21.75 14.76 23.40 13.84 24.77 C 17.28 26.83 20.56 29.14 24.06 31.10 C 25.90 31.19 27.01 29.05 28.36 28.04 C 27.37 26.72 26.38 25.40 25.42 24.06 C 26.58 25.06 27.57 26.23 28.37 27.54 C 30.14 25.89 31.29 23.73 32.99 22.02 C 31.81 24.08 30.17 25.86 29.20 28.05 C 30.39 30.65 33.25 32.25 35.10 34.46 C 41.02 28.67 46.19 22.10 52.63 16.84 C 58.00 12.22 64.31 8.94 70.39 5.37 Z" />
<path fill="#1f191a" opacity="1.00" d=" M 100.36 8.15 C 105.77 8.13 111.18 8.11 116.58 8.16 C 116.27 9.33 115.95 10.50 115.63 11.67 C 112.04 14.00 108.30 16.10 104.87 18.66 C 107.96 18.66 111.06 18.63 114.16 18.65 C 113.84 19.88 113.52 21.12 113.21 22.35 C 107.58 22.36 101.95 22.36 96.33 22.36 C 96.56 21.53 97.02 19.86 97.25 19.03 C 100.60 16.35 104.52 14.42 108.01 11.90 C 105.14 11.87 102.27 11.87 99.40 11.82 C 99.72 10.60 100.04 9.37 100.36 8.15 Z" />
<path fill="#1f191a" opacity="1.00" d=" M 81.99 27.11 C 81.25 21.76 78.19 14.69 83.16 10.53 C 80.48 14.16 80.92 18.68 81.95 22.81 C 83.79 21.29 85.87 20.10 88.06 19.15 C 87.46 20.99 87.05 22.89 86.62 24.77 C 85.06 25.51 83.48 26.23 81.99 27.11 Z" />
<path fill="#1f191a" opacity="1.00" d=" M 110.32 16.99 C 111.86 15.84 113.48 14.79 115.12 13.79 C 115.03 14.57 114.86 16.13 114.77 16.91 C 113.29 16.95 111.80 16.98 110.32 16.99 Z" />
<path fill="#1f191a" opacity="1.00" d=" M 68.59 36.44 C 71.61 34.09 74.91 32.12 78.18 30.13 C 78.69 30.99 79.21 31.84 79.71 32.70 C 79.76 33.14 79.85 34.03 79.90 34.47 C 79.30 34.87 78.11 35.66 77.51 36.06 C 77.37 36.11 77.08 36.21 76.93 36.26 C 74.16 36.60 71.37 36.51 68.59 36.44 Z" />
</g>
<g id="#ffffffff">
<path fill="#ffffff" opacity="1.00" d=" M 7.29 18.24 C 9.68 9.11 18.41 1.51 28.07 1.79 C 60.72 1.81 93.38 1.79 126.03 1.80 C 129.22 1.82 132.41 1.64 135.58 2.05 C 135.08 3.08 134.58 4.11 134.08 5.13 L 133.00 3.69 C 120.29 3.36 107.52 3.52 94.81 3.55 C 93.19 6.73 91.48 9.89 90.38 13.29 C 89.76 15.04 89.26 16.82 88.60 18.54 L 88.06 19.15 C 85.87 20.10 83.79 21.29 81.95 22.81 C 80.92 18.68 80.48 14.16 83.16 10.53 C 78.19 14.69 81.25 21.76 81.99 27.11 C 81.71 28.25 81.00 29.01 79.84 29.39 C 79.79 30.49 79.75 31.60 79.71 32.70 C 79.21 31.84 78.69 30.99 78.18 30.13 C 74.91 32.12 71.61 34.09 68.59 36.44 C 71.37 36.51 74.16 36.60 76.93 36.26 C 77.08 36.21 77.37 36.11 77.51 36.06 C 78.40 36.24 80.17 36.60 81.06 36.78 C 82.44 35.16 82.10 32.91 82.30 30.95 C 82.70 32.84 82.82 34.77 82.71 36.69 C 94.87 35.82 107.19 37.63 119.21 35.28 C 116.62 37.94 112.54 38.14 109.04 38.22 C 73.42 38.10 37.79 38.36 2.17 38.09 C 3.94 31.49 5.55 24.85 7.29 18.24 M 24.06 4.00 C 17.55 4.71 11.79 10.27 9.50 16.41 C 7.54 23.04 6.02 29.80 4.26 36.49 C 8.52 36.47 12.79 36.48 17.05 36.50 C 16.58 35.86 15.65 34.57 15.18 33.93 C 16.38 35.40 17.56 37.18 19.85 36.63 C 20.10 36.02 20.36 35.40 20.63 34.79 L 21.60 33.89 C 24.07 32.60 26.12 30.69 28.37 29.08 C 30.66 31.54 32.89 34.05 34.95 36.70 C 38.10 35.34 40.87 33.27 43.89 31.67 C 54.42 25.82 65.94 21.11 78.09 20.46 C 76.26 20.22 74.42 20.14 72.58 20.10 C 72.66 19.47 72.83 18.20 72.92 17.56 C 74.63 12.54 76.65 7.60 80.00 3.42 C 78.35 3.43 76.69 3.44 75.04 3.44 C 73.32 3.63 71.85 4.54 70.39 5.37 C 64.31 8.94 58.00 12.22 52.63 16.84 C 46.19 22.10 41.02 28.67 35.10 34.46 C 33.25 32.25 30.39 30.65 29.20 28.05 C 30.17 25.86 31.81 24.08 32.99 22.02 C 31.29 23.73 30.14 25.89 28.37 27.54 C 27.57 26.23 26.58 25.06 25.42 24.06 C 26.38 25.40 27.37 26.72 28.36 28.04 C 27.01 29.05 25.90 31.19 24.06 31.10 C 20.56 29.14 17.28 26.83 13.84 24.77 C 14.76 23.40 15.50 21.75 17.00 20.92 C 19.01 21.65 20.25 23.62 21.89 24.92 C 20.83 23.36 19.61 21.94 18.38 20.52 C 19.71 18.63 19.64 16.34 19.61 14.14 C 22.10 10.89 24.94 7.94 27.53 4.77 C 28.10 4.35 28.65 3.91 29.18 3.45 C 27.52 3.70 25.45 2.83 24.06 4.00 Z" />
<path fill="#ffffff" opacity="1.00" d=" M 99.21 6.37 C 122.06 6.50 144.91 6.39 167.76 6.43 C 165.47 15.46 163.10 24.48 160.87 33.53 C 157.36 33.60 153.85 33.58 150.34 33.57 C 151.92 27.32 153.53 21.08 155.13 14.83 C 144.99 14.94 134.86 15.30 124.71 15.28 C 126.00 16.07 127.54 15.76 128.97 15.82 C 135.32 15.77 141.67 15.85 148.01 15.65 C 151.38 15.78 152.53 19.75 151.35 22.44 C 150.09 26.42 150.08 32.61 144.90 33.47 C 133.32 33.73 121.73 33.48 110.15 33.59 C 110.84 30.78 111.55 27.98 112.27 25.18 C 120.53 25.19 128.79 25.15 137.05 25.20 C 138.46 25.18 140.05 25.37 141.17 24.32 C 125.53 23.63 109.84 24.43 94.19 23.91 C 94.76 21.88 95.30 19.84 95.79 17.80 C 97.92 16.43 100.08 15.11 102.03 13.50 C 100.45 13.53 98.87 13.57 97.30 13.60 C 97.89 11.18 98.49 8.76 99.21 6.37 M 100.36 8.15 C 100.04 9.37 99.72 10.60 99.40 11.82 C 102.27 11.87 105.14 11.87 108.01 11.90 C 104.52 14.42 100.60 16.35 97.25 19.03 C 97.02 19.86 96.56 21.53 96.33 22.36 C 101.95 22.36 107.58 22.36 113.21 22.35 C 113.52 21.12 113.84 19.88 114.16 18.65 C 111.06 18.63 107.96 18.66 104.87 18.66 C 108.30 16.10 112.04 14.00 115.63 11.67 C 115.95 10.50 116.27 9.33 116.58 8.16 C 111.18 8.11 105.77 8.13 100.36 8.15 M 118.28 8.09 C 117.10 12.85 115.77 17.58 114.69 22.37 C 124.05 22.40 133.42 22.39 142.78 22.38 C 142.41 23.89 142.04 25.40 141.69 26.91 C 132.22 27.07 122.75 26.73 113.29 27.09 C 112.98 28.73 112.65 30.36 112.34 32.00 C 122.55 31.96 132.77 31.99 142.99 31.99 C 145.07 32.20 147.39 31.11 147.93 28.96 C 149.03 25.41 150.19 21.78 150.10 18.01 C 147.52 17.00 144.73 17.36 142.03 17.32 C 135.62 17.32 129.21 17.36 122.80 17.30 C 123.20 15.89 123.62 14.50 124.05 13.10 C 133.40 13.13 142.75 13.16 152.09 13.09 C 152.52 11.41 152.93 9.72 153.33 8.03 C 141.64 8.05 129.96 7.93 118.28 8.09 M 154.96 8.01 C 154.50 9.71 154.07 11.41 153.65 13.11 C 154.52 13.11 156.25 13.13 157.12 13.13 C 155.75 19.47 153.82 25.67 152.50 32.01 C 154.89 32.03 157.28 31.99 159.67 31.86 C 161.48 23.87 163.88 16.02 165.58 8.00 C 162.04 7.99 158.50 8.01 154.96 8.01 M 110.32 16.99 C 111.80 16.98 113.29 16.95 114.77 16.91 C 114.86 16.13 115.03 14.57 115.12 13.79 C 113.48 14.79 111.86 15.84 110.32 16.99 Z" />
<path fill="#ffffff" opacity="1.00" d=" M 68.36 9.08 C 69.70 8.28 71.22 7.70 72.78 8.29 C 71.79 9.38 70.14 10.24 70.70 11.99 C 70.34 11.99 69.60 12.00 69.23 12.00 C 69.63 10.85 69.34 9.88 68.36 9.08 Z" />
</g>
<g id="#9ae300ff">
<path fill="#9ae300" opacity="1.00" d=" M 24.06 4.00 C 25.45 2.83 27.52 3.70 29.18 3.45 C 28.65 3.91 28.10 4.35 27.53 4.77 C 24.62 6.73 22.00 9.12 19.85 11.89 C 17.89 14.37 18.76 18.12 16.39 20.37 C 15.06 22.39 11.79 24.31 12.95 27.09 C 14.93 30.49 18.29 32.92 19.85 36.63 C 17.56 37.18 16.38 35.40 15.18 33.93 C 13.33 31.39 10.18 29.40 9.85 26.04 C 10.98 23.05 13.87 21.21 15.35 18.42 C 16.26 15.69 16.17 12.48 18.40 10.35 C 20.05 8.03 23.06 6.73 24.06 4.00 Z" />
<path fill="#9ae300" opacity="1.00" d=" M 75.04 3.44 C 76.69 3.44 78.35 3.43 80.00 3.42 C 76.65 7.60 74.63 12.54 72.92 17.56 C 72.46 18.56 72.01 19.56 71.54 20.55 C 63.29 21.54 55.65 25.01 48.13 28.35 C 44.36 30.00 41.22 32.93 37.14 33.89 C 44.14 25.97 51.33 17.95 60.28 12.16 C 65.01 8.93 70.41 6.82 75.04 3.44 M 68.36 9.08 C 69.34 9.88 69.63 10.85 69.23 12.00 C 69.60 12.00 70.34 11.99 70.70 11.99 C 70.14 10.24 71.79 9.38 72.78 8.29 C 71.22 7.70 69.70 8.28 68.36 9.08 Z" />
<path fill="#9ae300" opacity="1.00" d=" M 95.48 4.22 C 96.63 4.01 97.77 3.81 98.92 3.62 C 95.17 10.61 91.20 17.63 89.79 25.55 C 87.19 26.81 82.51 27.51 82.30 30.95 C 82.10 32.91 82.44 35.16 81.06 36.78 C 80.17 36.60 78.40 36.24 77.51 36.06 C 78.11 35.66 79.30 34.87 79.90 34.47 C 79.85 34.03 79.76 33.14 79.71 32.70 C 79.75 31.60 79.79 30.49 79.84 29.39 C 81.00 29.01 81.71 28.25 81.99 27.11 C 83.48 26.23 85.06 25.51 86.62 24.77 C 87.05 22.89 87.46 20.99 88.06 19.15 L 88.60 18.54 C 89.26 16.82 89.76 15.04 90.38 13.29 C 91.79 10.10 94.45 7.56 95.48 4.22 Z" />
<path fill="#9ae300" opacity="1.00" d=" M 118.28 8.09 C 129.96 7.93 141.64 8.05 153.33 8.03 C 152.93 9.72 152.52 11.41 152.09 13.09 C 142.75 13.16 133.40 13.13 124.05 13.10 C 123.62 14.50 123.20 15.89 122.80 17.30 C 129.21 17.36 135.62 17.32 142.03 17.32 C 144.73 17.36 147.52 17.00 150.10 18.01 C 150.19 21.78 149.03 25.41 147.93 28.96 C 147.39 31.11 145.07 32.20 142.99 31.99 C 132.77 31.99 122.55 31.96 112.34 32.00 C 112.65 30.36 112.98 28.73 113.29 27.09 C 122.75 26.73 132.22 27.07 141.69 26.91 C 142.04 25.40 142.41 23.89 142.78 22.38 C 133.42 22.39 124.05 22.40 114.69 22.37 C 115.77 17.58 117.10 12.85 118.28 8.09 Z" />
<path fill="#9ae300" opacity="1.00" d=" M 154.96 8.01 C 158.50 8.01 162.04 7.99 165.58 8.00 C 163.88 16.02 161.48 23.87 159.67 31.86 C 157.28 31.99 154.89 32.03 152.50 32.01 C 153.82 25.67 155.75 19.47 157.12 13.13 C 156.25 13.13 154.52 13.11 153.65 13.11 C 154.07 11.41 154.50 9.71 154.96 8.01 Z" />
<path fill="#9ae300" opacity="1.00" d=" M 14.12 25.82 C 17.53 27.44 20.53 29.76 23.83 31.57 C 23.10 32.35 22.36 33.12 21.60 33.89 L 20.63 34.79 C 17.81 32.33 15.76 29.16 14.12 25.82 Z" />
</g>
</svg>
